<svg width="102" height="110" viewBox="0 0 102 110" fill="none" xmlns="http://www.w3.org/2000/svg">
<path fill-rule="evenodd" clip-rule="evenodd" d="M51.0822 58.4769C51.0822 58.4417 51.0463 58.4417 51.0104 58.4417C50.9746 58.4417 50.9387 58.4417 50.9387 58.4417V58.4769C50.7952 58.5474 50.867 58.6883 50.8311 59.1464C50.7952 62.0709 50.3649 65.0659 50.078 67.9904C49.8628 70.3864 49.3965 77.5743 48.8944 84.3747C48.3923 91.175 47.8185 97.5173 47.3523 98.2573C46.9219 98.821 46.3122 99.1734 45.5949 99.2791C44.3756 99.42 44.0887 99.0324 43.4431 98.6449C38.5656 95.5442 32.6839 91.1398 26.8381 86.5945C20.9922 82.0492 15.1105 77.3277 10.233 73.628C8.83431 72.6062 7.54321 53.8259 7.2563 51.0423C6.96939 48.893 6.89766 46.6027 6.61075 44.3829C6.32384 42.1631 6.10865 39.9433 5.89347 37.8292C5.75001 36.3493 4.88926 32.1916 5.85759 31.1698C7.86598 29.0557 10.1613 31.4517 11.6676 32.1564C15.0029 33.7067 17.8003 35.856 21.1357 37.4064C22.5702 38.1111 23.682 39.0977 25.0449 39.6967C26.4077 40.4366 27.8064 41.2118 29.2051 41.9517C29.7072 42.3041 30.1376 42.3745 30.6397 42.6916C31.0342 42.9735 31.4645 43.2554 31.8949 43.502C32.7915 43.9953 33.6881 44.4534 34.5847 44.9467C36.5214 45.898 42.9052 50.0205 43.9094 50.091C44.0169 49.2454 43.5866 49.3863 42.9051 48.9987C40.9685 47.4836 39.0318 45.9333 37.0952 44.4182C36.7007 44.101 36.1986 43.8544 35.7682 43.502C34.0826 42.2688 32.4329 41.0356 30.819 39.7671C30.281 39.3796 30.2452 39.2738 29.6713 38.851C28.0933 37.6883 11.4524 25.0389 11.2731 24.6161C10.4123 22.7134 12.349 22.0087 13.5325 21.4802L23.5744 17.0758C24.2559 16.8291 24.8655 16.5825 25.5828 16.2654C41.6499 9.25361 46.3481 5.7301 51.0104 5.7301C55.6728 5.7301 60.3351 9.25361 76.438 16.2654C77.1553 16.5825 77.765 16.7939 78.4464 17.0758C81.7818 18.5204 85.153 20.0003 88.4884 21.4802C89.6719 22.0439 91.6085 22.7486 90.7478 24.6161C90.5326 25.0389 73.8917 37.6883 72.3495 38.851C71.7757 39.2738 71.7398 39.3796 71.2019 39.7671C69.5521 41.0004 67.8665 42.2336 66.2526 43.502C65.8223 43.8544 65.2843 44.101 64.9257 44.4182L59.1157 48.9987C58.4343 49.4215 58.0039 49.2454 58.1115 50.091C59.1157 50.0205 65.4995 45.8628 67.4362 44.9467C68.3328 44.4886 69.2294 43.9953 70.126 43.502C70.5563 43.2554 70.9867 42.9735 71.3812 42.6916C71.8833 42.4098 72.3137 42.3041 72.8158 41.9517C74.1786 41.2118 75.5773 40.4366 76.976 39.6967C78.3388 39.0977 79.4147 38.1111 80.8852 37.4416C84.1847 35.8913 86.9821 33.7419 90.3533 32.1916C91.8596 31.4869 94.1549 29.0909 96.1632 31.205C97.1316 32.2268 96.2708 36.3846 96.1274 37.8644C95.9122 39.9433 95.6612 42.1984 95.4101 44.3829C95.1591 46.5675 95.0515 48.893 94.7645 51.0423C94.0831 57.6665 93.3659 64.2907 92.6845 70.8797C92.6127 71.8662 92.5769 73.029 91.7879 73.628C86.8745 77.3277 80.9928 82.0492 75.1469 86.5945C69.3011 91.1398 63.4194 95.5794 58.5777 98.6801C57.9322 99.1029 57.6453 99.4905 56.4259 99.3143C55.7445 99.2086 55.0989 98.821 54.6686 98.2925C54.2023 97.5526 53.6285 91.175 53.1264 84.4099C52.6243 77.6448 52.1581 70.4216 51.9429 68.0256C51.656 65.1011 51.2256 62.1061 51.1897 59.1816C51.1897 58.6883 51.2256 58.5474 51.0822 58.4769ZM38.1352 5.41299C37.3104 5.87104 36.4496 6.18816 35.6965 6.57574C35.6248 6.61098 35.2303 6.78715 35.1227 6.82239C33.6164 7.52709 32.1459 8.23179 30.6755 8.93649C29.743 9.39455 28.954 9.64119 27.9857 10.064C27.1608 10.4516 26.4794 10.8392 25.5828 11.262C23.8972 12.0724 22.2475 12.8476 20.5977 13.658C18.8763 14.4332 17.37 15.3493 15.5768 16.0187C13.927 16.8291 12.2773 17.6395 10.6275 18.4499C9.80263 18.8728 8.87018 19.1546 7.97358 19.5775C-1.24348 24.0171 -0.382748 22.6429 0.549717 32.0507C0.944222 35.8913 1.08769 40.0843 1.41046 44.0658C1.73324 48.0474 1.91256 51.9937 2.23533 55.94C2.34292 57.9484 2.48637 59.9568 2.62983 61.93C2.73742 63.8679 3.0602 65.9468 3.0602 67.8847C3.16779 69.8931 3.31125 71.8662 3.41884 73.8746C3.49057 74.8965 3.92093 75.284 4.78167 75.8478C7.47147 77.8914 10.1613 79.8998 12.8511 81.9082C17.8003 85.4317 22.7496 88.9552 27.6629 92.4787C32.6122 96.0022 37.5256 99.6314 42.2955 103.296C42.7617 103.648 42.8334 103.824 43.1921 104.106C51.5843 110.695 50.3649 110.695 58.7571 104.106C59.1157 103.824 59.2233 103.648 59.6537 103.296C60.3351 102.767 61.0523 102.345 61.7338 101.816C67.6155 97.4469 73.5689 93.1482 79.4865 88.8495C85.404 84.5509 91.3575 80.2169 97.1675 75.8478C98.0282 75.284 98.4227 74.8612 98.5303 73.8746C98.6379 71.9015 98.7813 69.8931 98.8889 67.8847C98.8889 65.9468 99.2117 63.8679 99.3193 61.93C99.4269 59.9216 99.5703 57.9484 99.7138 55.94C100.037 51.9937 100.216 48.0121 100.539 44.0658C100.861 40.1195 101.005 35.9265 101.399 32.0859C102.368 22.6429 103.228 24.0523 93.9755 19.5775C93.1148 19.1546 92.1465 18.8375 91.3216 18.4499L86.3724 16.0187C84.5792 15.3493 83.0729 14.4332 81.3514 13.658C79.6658 12.8828 78.0161 12.0724 76.3663 11.262C75.4697 10.8744 74.7883 10.4516 73.9634 10.0992C72.9951 9.64119 72.2061 9.42978 71.2736 8.97173C69.7673 8.26703 68.2969 7.56232 66.8265 6.85762C66.7189 6.82239 66.3244 6.64621 66.2526 6.61098C65.4995 6.22339 64.6388 5.90628 63.8498 5.44822C50.5801 -1.81019 51.4408 -1.81019 38.1352 5.41299Z" fill="#371D48"/>
<path d="M73.6789 22.731L66.1475 26.6421C65.7888 26.8182 65.3585 26.8535 64.9998 26.6773L64.2467 26.2192L63.6011 26.5716C63.2425 26.7478 62.8121 26.783 62.4535 26.6068L61.4134 25.9726L60.4092 26.5011L60.983 26.8535L60.1223 27.3115C60.0147 27.382 59.8712 27.4172 59.7637 27.4525C59.6561 27.4877 59.5485 27.4877 59.4409 27.4877L58.7953 27.4525H58.6519C55.2089 29.2847 52.2681 30.9055 49.7576 32.3501C50.0445 32.9139 49.7576 33.5834 48.861 34.0414C48.7893 34.0766 48.6817 34.1119 48.5741 34.1824C49.2914 34.9575 48.9327 35.9793 47.6775 36.6488C46.1712 37.424 43.8759 37.424 42.5848 36.6488L30.4269 29.2142C29.1358 28.439 29.3509 27.1353 30.8572 26.3602C32.2201 25.6907 33.8339 25.585 35.2685 26.0431C35.3402 26.0078 35.412 25.9374 35.5196 25.9021C36.4879 25.4441 37.5638 25.3384 38.6039 25.5498C41.3295 24.2813 44.4497 22.731 48.0002 20.9692V20.8987L47.9644 20.5464C47.9644 20.5112 48.0003 20.4407 48.072 20.3702C48.1437 20.2997 48.2513 20.2293 48.3589 20.1588L49.2196 19.7008L49.7935 20.0531L50.7976 19.5246L49.7576 18.8903C49.4707 18.7142 49.5424 18.4323 49.901 18.2561L50.5466 17.9038L49.7935 17.4457C49.5065 17.2695 49.5783 16.9877 49.9369 16.8115L57.4684 12.9004L60.6244 14.7678L57.3608 16.4591L59.1898 17.5867L62.4535 15.8954L68.7297 19.7008L65.466 21.392L67.2951 22.4843L70.5587 20.793L73.6789 22.731Z" fill="#371D48"/>
<path d="M35.949 81.0462C35.949 81.1871 35.9132 81.3281 35.8414 81.469C36.8456 82.7022 37.527 84.2174 37.527 85.3449C37.527 86.9304 36.2001 87.2476 34.5503 86.0496L19.0929 74.4572C17.4432 73.224 16.1162 70.9338 16.1162 69.3129C16.1162 68.0092 16.9769 67.5512 18.1963 68.0797C18.1605 67.9388 18.1604 67.8331 18.1604 67.6921C18.1604 67.3398 18.3039 67.1284 18.5908 67.0931C18.8777 66.7055 19.4157 66.6351 20.0613 66.917V66.8465C20.0613 66.4941 20.3482 66.4237 20.7068 66.7055L22.1414 67.7626V64.4505L21.9979 64.3448C21.6393 64.0982 21.4241 63.7458 21.3524 63.323C21.3524 63.0411 21.6393 63.0059 21.9979 63.2878L21.9262 63.2525C21.9262 63.2525 18.8419 55.5713 18.8419 52.0125C18.8419 48.2072 23.289 47.5377 26.194 47.9958V47.9605C25.8354 47.5025 25.6202 46.9739 25.5485 46.4102C25.5485 45.7055 26.2299 45.5998 27.0547 46.234C27.8796 46.8682 28.561 47.9253 28.561 48.63C28.561 49.0528 28.31 49.2642 27.9155 49.229V49.2642C28.561 50.1451 29.2783 51.1669 30.0315 52.2944L28.8121 54.1971L26.194 58.2844C25.943 58.672 26.0147 59.4119 26.5885 60.1166C27.1623 60.8213 27.6644 60.8918 27.9155 60.5042L30.5335 56.4169L31.5736 54.7961C33.582 58.2139 35.3035 61.9488 35.3035 64.3448C35.3035 67.9035 32.255 71.0042 32.255 71.0042L32.1833 70.969C32.5419 71.2156 32.7571 71.568 32.8289 71.9908C32.8289 72.2727 32.5419 72.3079 32.1833 72.026L32.0398 71.9203V75.2324L33.4744 76.2895C33.833 76.5714 34.0482 76.9589 34.1199 77.3818V77.6636C34.4786 78.1217 34.7655 78.5798 34.9807 79.1083C35.4828 79.5663 35.8414 80.271 35.949 81.0462Z" fill="#371D48"/>
<path d="M77.6954 64.804C79.7038 62.8661 81.5329 60.7872 83.2185 58.6026C83.0392 59.9063 82.7523 61.2453 82.4295 62.6899C81.4253 64.1345 80.2418 65.6849 78.9148 67.3057L79.2735 67.0238C80.2418 66.1782 81.1384 65.3325 81.9633 64.4516C81.8198 64.9449 81.6764 65.4382 81.497 65.9315C81.9633 66.002 82.2502 66.3896 82.2502 67.059C82.2502 67.1647 82.2502 67.2704 82.2502 67.3409C83.5771 66.6362 84.5455 67.059 84.5455 68.4332C84.5455 70.0892 83.1826 72.4852 81.497 73.7889L65.6451 86.1564C63.9595 87.4601 62.5967 87.1782 62.5967 85.5574C62.5967 84.148 63.565 82.2101 64.892 80.8712C64.892 80.7655 64.892 80.695 64.892 80.5893C64.892 79.4618 65.681 77.8762 66.7569 76.8191C66.6493 76.6782 66.5417 76.5373 66.47 76.4668C66.2548 76.1849 66.1472 76.1144 66.4341 75.1631C66.9362 73.648 68.0839 70.1245 72.28 62.3023C73.4276 60.1882 73.3559 59.4483 72.9614 59.4483C72.7103 59.4483 71.8855 60.0825 71.7062 60.2234C70.6302 61.1043 69.6978 62.0909 68.8729 63.1832C68.1915 64.2402 68.048 65.1211 67.6535 65.7906C67.259 66.46 65.2506 68.0456 65.1072 67.6933C64.9637 67.3409 65.7527 65.9315 65.5734 65.861C65.3941 65.7906 64.4258 67.4819 63.6367 67.6228C63.2422 67.7285 63.0988 65.2973 63.0988 65.2973C63.0988 65.2973 62.9912 64.804 63.4933 63.8879C63.9954 62.9718 66.2548 59.0607 67.3666 56.1009C67.9046 55.0439 68.5501 54.0221 69.2315 53.0355C69.4826 52.6479 69.4826 52.4365 69.2315 52.3308C68.1915 51.8727 66.9721 51.767 67.5459 50.9214C67.9046 50.3929 68.4784 49.5472 72.531 48.3845C73.7145 47.5741 74.9698 46.8694 76.3326 46.3761C76.9423 47.0455 77.4444 48.2083 77.4444 50.2519C77.8389 48.8425 77.9823 47.3979 77.8748 45.9532C78.4127 45.8828 78.9148 45.8828 79.4528 45.9532C79.9549 47.2217 80.1701 49.2301 79.381 52.3308C80.2059 50.5338 80.8156 48.6663 81.1742 46.7284C81.7122 47.1512 82.1426 47.715 82.4295 48.314C82.1067 50.6747 81.1743 54.2335 78.7355 58.4969C80.457 56.1714 81.9991 53.6697 83.2902 51.0976C83.3261 51.2737 83.362 51.4147 83.362 51.5908C83.5054 52.6479 83.5413 53.6697 83.4696 54.7268C81.9991 58.356 80.0266 61.7033 77.6954 64.804Z" fill="#371D48"/>
</svg>
